<svg width="664" height="284" viewBox="0 0 664 284" fill="none" xmlns="http://www.w3.org/2000/svg">
<path d="M1 274.15L18.177 252.447C18.9458 251.475 20.4037 251.429 21.2322 252.35L31.1309 263.354C31.8304 264.132 33.0109 264.239 33.8392 263.601L72.1017 234.094C72.9533 233.437 74.1717 233.571 74.8599 234.398L101.208 266.037C102.274 267.316 104.344 266.809 104.699 265.183L120.947 190.691C121.03 190.306 121.226 189.955 121.508 189.681L137.821 173.861C138.194 173.499 138.693 173.297 139.213 173.297H148.683C148.893 173.297 149.103 173.263 149.303 173.198L168.521 166.934C168.648 166.892 168.772 166.838 168.888 166.772L221.419 136.939C221.686 136.787 221.915 136.575 222.088 136.32L244.451 103.249C244.512 103.158 244.581 103.073 244.656 102.994L256.947 90.0213C257.941 88.9717 259.687 89.2917 260.244 90.6259L274.726 125.289C275.255 126.555 276.873 126.925 277.899 126.014L320.082 88.5639C320.62 88.0862 321.373 87.9344 322.054 88.1661L409.973 118.083C410.617 118.302 411.329 118.179 411.862 117.755L433.162 100.817C433.688 100.399 434.388 100.273 435.027 100.481L453.14 106.385C453.516 106.507 453.847 106.739 454.091 107.049L459.949 114.491C460.601 115.319 461.784 115.499 462.653 114.903L529.385 69.0763C530.251 68.4819 531.429 68.6581 532.083 69.4796L557.557 101.492C558.262 102.378 559.561 102.502 560.422 101.766L590.058 76.4234L663 20.9153" stroke="#474747" stroke-linejoin="round"/>
<path d="M1.98206 278.822L14.1295 260.006C14.6851 259.145 15.801 258.844 16.7145 259.307L34.0743 268.112C34.9592 268.561 36.0394 268.293 36.6121 267.483L69.7345 220.625C70.6175 219.375 72.519 219.54 73.1747 220.922L101.17 279.942C101.875 281.43 103.976 281.475 104.745 280.019L125.618 240.491C125.77 240.203 125.85 239.883 125.85 239.557V184.845C125.85 183.74 126.745 182.845 127.85 182.845H144.176C144.997 182.845 145.735 183.347 146.036 184.111L148.906 191.388C149.311 192.415 150.471 192.919 151.498 192.516L167.165 186.359C167.505 186.225 167.803 186 168.025 185.709L228.261 106.552C228.818 105.821 229.802 105.563 230.646 105.928L245.236 112.234C245.486 112.343 245.756 112.399 246.029 112.399H260.604C261.453 112.399 262.21 112.935 262.491 113.737L276.915 154.887C277.347 156.121 278.828 156.615 279.915 155.887L334.905 119.06C335.393 118.733 336 118.637 336.565 118.798L408.872 139.358C409.811 139.625 410.806 139.175 411.225 138.294L434.258 89.8993C434.589 89.2026 435.292 88.7588 436.064 88.7588H459.848C460.742 88.7588 461.527 89.3515 461.772 90.2108L472.907 129.294C473.018 129.683 473.244 130.03 473.556 130.288L491.313 144.961C492.027 145.551 493.052 145.574 493.791 145.017L513.546 130.127C513.752 129.972 513.926 129.778 514.059 129.557L536.605 91.8721C537.414 90.5206 539.395 90.5906 540.106 91.9959L555.018 121.464C555.419 122.256 556.294 122.689 557.167 122.527L577.785 118.708C578.344 118.604 578.832 118.267 579.128 117.782L589.17 101.31C589.274 101.138 589.404 100.984 589.554 100.851L629.826 65.2916C630.013 65.1265 630.167 64.928 630.281 64.7061L662.999 1" stroke="#00A4B8" stroke-linejoin="round"/>
</svg>
