<svg width="961" height="1187" viewBox="0 0 961 1187" fill="none" xmlns="http://www.w3.org/2000/svg">
<g clip-path="url(#clip0_1_1360)">
<path d="M-213.717 1701.35L313.072 371.649" stroke="#00A4B8" stroke-miterlimit="10"/>
<path d="M295.425 358.339C299.521 364.356 136.467 801.137 143.955 802.56C151.444 803.982 -238.951 1682.52 -240.372 1689.99" stroke="#00A4B8" stroke-miterlimit="10"/>
<path d="M277.765 345.039C285.956 357.071 135.67 786.864 150.623 789.705C165.588 792.548 -264.197 1663.69 -267.04 1678.65" stroke="#00A4B8" stroke-miterlimit="10"/>
<path d="M260.118 331.729C272.405 349.778 134.877 772.568 157.318 776.831C179.76 781.094 -289.429 1644.85 -293.692 1667.29" stroke="#00A4B8" stroke-miterlimit="10"/>
<path d="M242.472 318.419C258.854 342.484 134.093 758.285 164.011 763.969C193.929 769.652 -314.661 1626.01 -320.347 1655.94" stroke="#00A4B8" stroke-miterlimit="10"/>
<path d="M224.811 305.119C245.279 335.186 133.284 744.01 170.691 751.116C208.097 758.222 -339.895 1607.18 -347.001 1644.59" stroke="#00A4B8" stroke-miterlimit="10"/>
<path d="M207.164 291.808C231.727 327.892 132.501 729.728 177.384 738.254C222.267 746.78 -365.129 1588.35 -373.655 1633.23" stroke="#00A4B8" stroke-miterlimit="10"/>
<path d="M189.506 278.496C218.164 320.596 131.694 715.441 184.065 725.389C236.436 735.338 -390.361 1569.51 -400.31 1621.88" stroke="#00A4B8" stroke-miterlimit="10"/>
<path d="M171.857 265.198C204.611 313.315 130.911 701.158 190.746 712.525C250.582 723.892 -415.607 1550.68 -426.976 1610.53" stroke="#00A4B8" stroke-miterlimit="10"/>
<path d="M154.198 251.886C191.048 306.019 130.104 686.872 197.428 699.661C264.752 712.45 -440.839 1531.84 -453.628 1599.16" stroke="#00A4B8" stroke-miterlimit="10"/>
<path d="M136.552 238.576C177.497 298.725 129.32 672.589 204.121 686.798C278.922 701.008 -466.073 1513.01 -480.283 1587.81" stroke="#00A4B8" stroke-miterlimit="10"/>
<path d="M118.891 225.276C163.932 291.441 128.511 658.314 210.8 673.946C293.09 689.578 -491.307 1494.18 -506.939 1576.47" stroke="#00A4B8" stroke-miterlimit="10"/>
<path d="M101.244 211.966C150.38 284.148 127.73 644.02 217.496 661.072C307.262 678.124 -516.539 1475.34 -533.592 1565.11" stroke="#00A4B8" stroke-miterlimit="10"/>
<path d="M83.5978 198.656C136.829 276.854 126.935 629.735 224.177 648.208C321.419 666.68 -541.783 1456.5 -560.258 1553.75" stroke="#00A4B8" stroke-miterlimit="10"/>
<path d="M65.937 185.356C123.264 269.57 126.137 615.463 230.856 635.355C335.575 655.248 -567.02 1437.68 -586.912 1542.4" stroke="#00A4B8" stroke-miterlimit="10"/>
<path d="M48.2904 172.046C109.703 262.262 125.342 601.178 237.549 622.493C349.757 643.808 -592.251 1418.84 -613.567 1531.05" stroke="#00A4B8" stroke-miterlimit="10"/>
<path d="M30.632 158.734C96.14 254.966 124.549 586.881 244.233 609.617C363.917 632.352 -617.486 1400.02 -640.221 1519.7" stroke="#00A4B8" stroke-miterlimit="10"/>
<path d="M12.983 145.436C82.5865 247.685 123.752 572.609 250.924 596.767C378.096 620.925 -642.718 1381.18 -666.876 1508.35" stroke="#00A4B8" stroke-miterlimit="10"/>
<path d="M-4.67545 132.123C69.0235 240.388 122.957 558.324 257.594 583.9C392.23 609.475 -667.964 1362.34 -693.542 1496.99" stroke="#00A4B8" stroke-miterlimit="10"/>
<path d="M-22.3221 118.813C55.4723 233.095 122.162 544.039 264.287 571.038C406.412 598.036 -693.196 1343.5 -720.196 1485.64" stroke="#00A4B8" stroke-miterlimit="10"/>
<path d="M-39.971 105.515C41.9092 225.799 121.366 529.754 270.98 558.175C420.594 586.596 -718.418 1324.68 -746.836 1474.28" stroke="#00A4B8" stroke-miterlimit="10"/>
<path d="M-57.6294 92.2028C28.3559 218.517 120.571 515.47 277.662 545.311C434.752 575.152 -743.662 1305.84 -773.503 1462.93" stroke="#00A4B8" stroke-miterlimit="10"/>
<path d="M-75.2761 78.8929C14.7927 211.221 119.776 501.185 284.343 532.447C448.91 563.708 -768.908 1287.01 -800.169 1451.57" stroke="#00A4B8" stroke-miterlimit="10"/>
<path d="M-92.9368 65.5928C1.24171 203.928 118.981 486.901 291.036 519.585C463.091 552.269 -794.13 1268.18 -826.812 1440.22" stroke="#00A4B8" stroke-miterlimit="10"/>
<path d="M-110.583 52.2829C-12.3214 196.632 118.184 472.628 297.715 506.732C477.247 540.836 -819.376 1249.35 -853.48 1428.88" stroke="#00A4B8" stroke-miterlimit="10"/>
<path d="M-128.242 38.9704C-25.8747 189.35 117.389 458.343 304.409 493.87C491.429 529.397 -844.608 1230.51 -880.132 1417.52" stroke="#00A4B8" stroke-miterlimit="10"/>
<path d="M-145.891 25.6724C-39.4378 182.054 116.593 444.058 311.09 481.005C505.587 517.952 -869.842 1211.68 -906.787 1406.16" stroke="#00A4B8" stroke-miterlimit="10"/>
<path d="M-163.549 12.3605C-52.9889 174.761 115.798 429.774 317.771 468.141C519.744 506.509 -895.074 1192.84 -933.441 1394.81" stroke="#00A4B8" stroke-miterlimit="10"/>
<path d="M-181.196 -0.949746C-66.552 167.464 115.003 415.489 324.465 455.279C533.926 495.069 -920.308 1174.01 -960.096 1383.46" stroke="#00A4B8" stroke-miterlimit="10"/>
<path d="M-198.845 -14.2478C-80.1054 160.183 114.208 401.205 331.146 442.415C548.084 483.625 -945.54 1155.17 -986.75 1372.11" stroke="#00A4B8" stroke-miterlimit="10"/>
<path d="M-216.503 -27.5599C-93.6684 152.887 113.425 386.922 337.827 429.55C562.23 472.178 -970.786 1136.34 -1013.42 1360.76" stroke="#00A4B8" stroke-miterlimit="10"/>
<path d="M-234.15 -40.8701C-107.22 145.593 112.63 372.637 344.521 416.688C576.412 460.738 -996.018 1117.5 -1040.07 1349.39" stroke="#00A4B8" stroke-miterlimit="10"/>
<path d="M-251.811 -54.1704C-120.785 138.309 111.82 358.362 351.2 403.835C590.579 449.308 -1021.25 1098.67 -1066.73 1338.05" stroke="#00A4B8" stroke-miterlimit="10"/>
<path d="M-269.457 -67.4801C-134.348 131.013 111.039 344.068 357.895 390.962C604.751 437.855 -1046.49 1079.84 -1093.38 1326.7" stroke="#00A4B8" stroke-miterlimit="10"/>
<path d="M-287.116 -80.7926C-147.899 123.72 110.242 329.795 364.574 378.109C618.907 426.422 -1071.72 1061 -1120.03 1315.34" stroke="#00A4B8" stroke-miterlimit="10"/>
<path d="M-304.765 -94.0901C-161.462 116.424 109.447 315.511 371.256 365.245C633.065 414.979 -1096.95 1042.18 -1146.69 1303.98" stroke="#00A4B8" stroke-miterlimit="10"/>
<path d="M-322.423 -107.403C-175.025 109.128 108.64 301.224 377.937 352.38C647.235 403.537 -1122.2 1023.33 -1173.35 1292.63" stroke="#00A4B8" stroke-miterlimit="10"/>
<path d="M-340.07 -120.712C-188.576 101.834 107.856 286.942 384.63 339.518C661.404 392.095 -1147.43 1004.5 -1200.01 1281.28" stroke="#00A4B8" stroke-miterlimit="10"/>
<path d="M-357.719 -134.01C-202.13 94.5527 107.061 272.657 391.324 326.656C675.586 380.655 -1172.66 985.676 -1226.66 1269.93" stroke="#00A4B8" stroke-miterlimit="10"/>
<path d="M-375.377 -147.323C-215.693 87.2565 106.266 258.372 398.005 313.791C689.744 369.211 -1197.9 966.836 -1253.32 1258.57" stroke="#00A4B8" stroke-miterlimit="10"/>
<path d="M-393.024 -160.633C-229.244 79.9631 105.471 244.088 404.686 300.927C703.902 357.767 -1223.13 948.008 -1279.97 1247.22" stroke="#00A4B8" stroke-miterlimit="10"/>
<path d="M-410.684 -173.933C-242.809 72.679 104.674 229.815 411.366 288.075C718.058 346.335 -1248.37 929.165 -1306.64 1235.87" stroke="#00A4B8" stroke-miterlimit="10"/>
<path d="M-428.331 -187.243C-256.361 65.3856 103.881 215.518 418.061 275.201C732.241 334.883 -1273.61 910.337 -1333.29 1224.51" stroke="#00A4B8" stroke-miterlimit="10"/>
<path d="M-445.99 -200.555C-269.923 58.0894 103.086 201.234 424.742 262.336C746.399 323.439 -1298.84 891.509 -1359.94 1213.17" stroke="#00A4B8" stroke-miterlimit="10"/>
<path d="M-463.638 -213.853C-283.477 50.8077 102.288 186.961 431.433 249.486C760.579 312.011 -1324.07 872.668 -1386.6 1201.81" stroke="#00A4B8" stroke-miterlimit="10"/>
<path d="M-481.285 -227.164C-297.038 43.4996 101.505 172.678 438.115 236.621C774.725 300.564 -1349.31 853.84 -1413.25 1190.46" stroke="#00A4B8" stroke-miterlimit="10"/>
<path d="M-498.944 -240.475C-310.603 36.2159 100.698 158.392 444.796 223.757C788.895 289.123 -1374.54 835 -1439.91 1179.11" stroke="#00A4B8" stroke-miterlimit="10"/>
<path d="M-516.592 -253.774C-324.154 28.9221 99.9146 144.109 451.489 210.895C803.064 277.681 -1399.79 816.169 -1466.57 1167.74" stroke="#00A4B8" stroke-miterlimit="10"/>
<path d="M-534.251 -267.086C-337.717 21.6265 99.1076 129.822 458.171 198.031C817.234 266.239 -1425.02 797.341 -1493.23 1156.39" stroke="#00A4B8" stroke-miterlimit="10"/>
<path d="M-551.898 -280.396C-351.268 14.3325 98.3242 115.54 464.864 185.168C831.404 254.797 -1450.25 778.5 -1519.88 1145.04" stroke="#00A4B8" stroke-miterlimit="10"/>
<path d="M-569.558 -293.696C-364.834 7.04859 97.5149 101.265 471.543 172.316C845.571 243.367 -1475.49 759.672 -1546.54 1133.69" stroke="#00A4B8" stroke-miterlimit="10"/>
<path d="M-587.205 -307.006C-378.385 -0.244841 96.7341 86.9706 478.227 159.44C859.72 231.909 -1500.72 740.832 -1573.19 1122.34" stroke="#00A4B8" stroke-miterlimit="10"/>
</g>
<defs>
<clipPath id="clip0_1_1360">
<rect width="971" height="1187" fill="white" transform="translate(-10)"/>
</clipPath>
</defs>
</svg>
